<?xml version="1.0" encoding="UTF-8" standalone="no"?>
<!DOCTYPE svg PUBLIC "-//W3C//DTD SVG 1.1//EN" "http://www.w3.org/Graphics/SVG/1.1/DTD/svg11.dtd">
<svg width="100%" height="100%" viewBox="0 0 838 706" version="1.1" xmlns="http://www.w3.org/2000/svg" xmlns:xlink="http://www.w3.org/1999/xlink" xml:space="preserve" xmlns:serif="http://www.serif.com/" style="fill-rule:evenodd;clip-rule:evenodd;stroke-linejoin:round;stroke-miterlimit:2;">
    <g id="path45" transform="matrix(0.994224,0.107328,-0.266045,0.963961,0,0)">
        <ellipse cx="155.41" cy="159.171" rx="106.203" ry="142.231" style="fill:white;"/>
    </g>
    <ellipse id="path44" cx="465.277" cy="352.614" rx="372.51" ry="352.614" style="fill:white;"/>
    <path id="path3" d="M107.596,60.474C99.096,62.874 85.696,69.674 77.596,75.774C43.996,100.674 19.596,150.774 19.596,195.074C19.596,222.874 24.796,241.974 36.996,259.074C45.696,271.274 60.196,279.574 73.996,280.474C97.696,281.874 118.596,272.274 139.196,250.374C149.796,239.074 158.896,225.474 166.596,209.374C178.296,184.974 182.096,167.874 181.996,141.174C181.896,118.974 179.796,108.674 172.196,93.174C165.596,79.674 161.596,74.474 153.796,68.774C143.896,61.474 137.896,59.474 125.096,59.074C116.596,58.774 112.596,59.074 107.596,60.474ZM130.196,95.574C134.796,97.674 141.896,104.374 144.196,108.974C145.596,111.674 145.596,111.874 144.296,111.374C135.796,108.174 126.496,108.174 117.496,111.574C106.096,115.974 89.096,130.674 82.896,141.674C77.696,150.674 75.796,152.674 72.096,152.674C69.696,152.674 68.196,151.974 66.696,150.074C64.096,146.774 64.096,145.174 66.596,138.274C72.996,121.274 91.896,102.474 109.496,95.574C115.596,93.174 124.896,93.174 130.196,95.574ZM148.596,118.574C150.696,122.674 152.596,135.174 152.596,145.674C152.596,164.274 149.096,177.974 139.496,197.174C128.796,218.574 109.696,237.574 95.396,241.174C89.896,242.574 82.896,233.074 79.496,219.574C77.596,212.474 77.396,209.374 77.896,197.274C78.496,181.174 80.096,173.974 85.696,161.874C91.196,149.974 97.696,140.674 105.396,133.574C117.696,122.374 129.496,116.874 141.796,116.774C146.496,116.674 147.696,117.074 148.596,118.574ZM57.296,221.474C61.796,230.674 67.896,236.874 75.096,239.574C78.196,240.774 81.796,241.674 83.096,241.674C84.396,241.674 85.796,242.174 86.196,242.774C87.396,244.774 74.596,243.174 69.996,240.874C61.696,236.674 54.696,225.374 52.196,212.174C51.696,209.274 51.696,209.274 52.696,211.674C53.296,213.074 55.296,217.474 57.296,221.474Z" style="fill-rule:nonzero;"/>
    <path id="path5" d="M184.496,87.874C192.696,104.174 195.596,118.074 195.896,142.474C196.096,158.474 195.796,161.774 193.096,174.774C186.796,204.674 173.496,231.474 152.996,255.474C141.896,268.374 130.796,277.174 116.196,284.774L107.296,289.474L112.696,290.974C133.796,296.874 144.696,295.374 161.196,284.474C190.896,264.674 217.096,217.774 221.596,176.474C224.096,152.674 222.196,129.274 216.496,114.974C208.096,93.774 201.796,86.074 188.496,80.574C183.896,78.674 179.896,77.074 179.496,76.874C179.096,76.674 181.296,81.674 184.496,87.874Z" style="fill-rule:nonzero;"/>
    <path id="path8" d="M223.796,96.374C223.996,96.874 225.996,100.874 228.296,105.274C233.296,114.874 236.296,126.074 238.196,141.174C240.796,162.974 239.296,182.474 232.996,205.474C229.596,218.274 218.796,242.574 213.196,250.174C211.996,251.774 208.996,256.274 206.596,260.174C198.496,273.174 181.496,289.974 168.896,297.374C163.496,300.474 161.796,299.574 182.596,305.274C199.696,309.974 207.996,310.574 215.996,307.774C230.096,302.774 246.696,289.074 257.896,273.074C276.596,246.274 285.996,216.374 285.996,183.674C285.996,148.174 273.496,117.874 254.696,107.874C248.396,104.474 223.196,95.174 223.796,96.374Z" style="fill-rule:nonzero;"/>
    <path id="path10" d="M286.596,123.074C286.596,123.374 287.896,125.974 289.496,128.874C293.796,136.574 298.396,148.874 300.296,157.074C302.596,167.474 303.096,200.274 300.996,212.674C296.396,240.874 278.296,277.274 259.696,295.374C252.896,302.074 240.996,311.074 236.596,312.874C234.396,313.774 235.296,314.274 245.096,316.874C278.896,325.874 280.096,325.974 292.996,319.574C302.896,314.674 308.996,310.174 315.796,302.774C334.896,282.174 347.696,253.874 350.496,225.774C354.196,189.474 348.096,162.174 332.196,144.074C326.796,137.874 318.896,133.574 301.296,127.274C288.996,122.874 286.596,122.174 286.596,123.074Z" style="fill-rule:nonzero;"/>
    <path id="path11" d="M353.296,150.374C352.996,150.674 353.996,153.474 355.496,156.574C360.796,167.174 363.496,175.374 365.696,187.274C367.496,197.274 367.696,201.574 367.296,214.174C366.496,238.374 362.196,255.574 351.696,277.174C340.296,300.474 322.996,319.574 305.796,327.674C302.896,329.074 300.596,330.374 300.596,330.674C300.596,331.474 308.196,333.674 310.896,333.674C317.696,333.674 329.696,327.474 337.696,319.974L341.296,316.574L347.196,318.074C350.396,318.874 362.996,321.974 374.996,325.074C399.796,331.374 404.396,331.774 414.196,328.274C429.796,322.574 442.596,308.774 449.296,290.274C452.796,280.474 453.696,275.374 454.296,262.574C454.796,249.374 454.796,248.674 451.796,239.074C446.696,222.974 436.996,210.874 424.596,205.374C422.096,204.274 411.096,200.274 400.096,196.574C389.096,192.874 379.596,189.074 378.996,188.174C378.396,187.374 377.596,184.774 377.196,182.474C375.996,174.874 370.096,164.074 363.896,157.774C357.896,151.874 354.296,149.274 353.296,150.374Z" style="fill-rule:nonzero;"/>
    <path id="path14" d="M462.096,229.774C462.496,231.074 463.396,233.274 464.096,234.674C467.796,242.174 468.996,249.174 468.996,263.674C468.996,276.674 468.696,279.074 466.196,287.074C460.796,304.374 453.596,316.774 443.396,326.174C436.496,332.674 431.096,335.974 421.296,339.674C415.196,342.074 413.596,343.274 410.896,347.074C405.096,355.474 403.196,361.974 403.196,373.674C403.196,382.374 403.496,385.174 405.396,389.874C409.896,400.974 421.296,413.174 430.596,416.674C432.496,417.374 434.496,418.374 434.996,418.774C435.496,419.174 431.196,425.674 425.496,433.274C419.796,440.874 414.396,447.974 413.596,449.174C412.296,451.174 382.896,490.074 376.596,498.174C375.196,499.974 372.796,503.174 371.096,505.274C369.496,507.474 366.096,511.674 363.596,514.674C361.096,517.674 355.696,524.674 351.596,530.174C347.496,535.674 343.596,540.574 342.996,541.174C342.396,541.674 339.396,545.574 336.296,549.674C333.196,553.774 328.796,559.674 326.496,562.674C324.196,565.674 316.296,576.074 308.996,585.674C301.696,595.274 294.596,604.474 293.196,606.174C293.196,606.174 289.344,609.897 282.696,620.474C284.596,621.574 288.996,624.074 292.596,626.174C335.196,650.674 385.296,666.474 438.596,672.174C474.096,675.974 511.996,672.974 558.096,662.574C594.696,654.374 635.296,637.774 662.096,619.974C653.597,612.107 653.573,612.208 650.496,609.074C650.001,608.57 646.096,604.674 626.096,578.674C613.796,562.674 607.396,554.574 561.696,497.274C534.396,463.074 495.596,412.274 495.596,410.874C495.596,410.374 497.596,408.574 499.996,406.874C507.996,401.174 514.596,388.974 516.296,376.974C517.496,368.474 512.096,351.974 505.896,345.474L503.396,342.874L509.396,335.474C516.396,326.874 518.496,323.074 522.396,311.074C529.996,288.174 525.996,262.974 512.496,249.774C507.496,244.874 503.096,242.274 494.596,239.374C487.896,237.074 465.396,228.974 463.196,228.174C461.596,227.474 461.496,227.674 462.096,229.774ZM459.096,343.774C455.596,347.074 452.396,351.474 450.296,355.574C447.296,361.674 447.096,362.874 447.096,372.174C447.096,381.874 447.296,382.574 450.896,389.874C455.296,398.874 459.996,403.374 468.996,407.174L475.096,409.774L464.096,409.274C447.596,408.474 438.996,405.274 431.096,397.074C423.796,389.574 422.096,384.974 422.096,372.174C422.096,362.274 422.396,360.574 424.796,355.374C426.296,352.274 428.096,349.474 428.796,349.274C429.496,349.074 434.396,347.774 439.596,346.274C444.796,344.874 452.496,342.374 456.596,340.874C460.696,339.274 464.196,338.074 464.396,338.274C464.596,338.374 462.196,340.874 459.096,343.774ZM434.396,472.374C432.996,475.474 423.696,491.674 410.096,514.674C404.996,523.174 398.296,534.474 395.296,539.674C390.296,548.074 383.896,558.474 371.196,578.874C364.705,589.301 344.399,627.705 339.911,625.28C335.554,622.925 356.596,584.474 356.596,583.874C356.596,583.374 358.996,579.674 361.896,575.574C364.696,571.474 373.296,558.974 380.996,547.674C401.096,517.874 434.696,469.674 435.296,469.674C435.396,469.674 434.996,470.874 434.396,472.374ZM476.396,479.774C481.496,487.574 520.996,553.674 523.496,558.474L525.696,562.774L518.896,569.474C507.896,580.474 502.796,591.574 501.696,607.174L500.996,617.174L498.196,608.674C496.396,602.974 495.296,597.174 494.896,591.174C494.396,582.374 495.396,577.174 500.096,561.874C502.596,554.074 489.496,567.274 484.396,577.874C479.396,588.274 477.296,595.774 476.596,606.674L475.996,616.174L472.896,609.674C465.896,594.674 465.196,591.574 465.096,574.174C465.096,563.774 465.496,556.974 466.396,554.774C468.896,547.774 465.496,550.274 459.996,559.374C458.596,561.774 455.796,568.074 453.796,573.374C450.196,583.174 450.196,583.274 450.096,599.674C450.096,608.774 450.396,617.774 450.896,619.674C451.396,621.974 451.296,622.774 450.596,622.074C448.796,620.274 445.796,610.474 444.196,601.074C442.296,590.574 443.296,576.174 446.596,563.174C447.696,558.874 448.396,555.074 448.096,554.874C446.196,552.974 434.396,569.774 429.696,581.074C425.396,591.474 423.596,601.674 423.496,616.374C423.396,623.174 422.996,628.474 422.596,628.174C422.196,627.974 420.996,625.174 419.996,621.974C417.996,615.674 417.396,600.474 418.896,591.174L419.696,586.174L416.196,590.174C411.896,595.174 405.296,607.374 402.996,614.774C401.396,620.274 401.196,620.474 397.196,621.074C394.996,621.474 390.496,623.074 387.396,624.674C384.196,626.374 381.296,627.674 380.996,627.674C380.696,627.674 381.796,625.774 383.396,623.374C387.996,616.674 433.296,540.374 460.296,493.674C466.696,482.674 471.896,474.674 472.596,474.674C472.896,474.674 474.596,476.974 476.396,479.774ZM524.596,495.174C529.796,502.274 538.796,514.474 544.596,522.174C550.496,529.874 557.496,539.274 560.296,543.174C562.996,546.974 570.496,557.274 576.896,565.974C583.396,574.674 588.22,582.568 588.596,583.274C594.976,595.258 620.708,637.142 611.128,629.025C601.997,621.29 585.996,597.374 580.896,589.874C572.396,577.174 566.696,568.074 538.096,521.674C532.196,512.074 524.296,499.174 520.496,493.074C516.696,486.874 513.596,481.574 513.596,481.074C513.596,479.974 514.196,480.674 524.596,495.174ZM538.296,580.874C539.996,583.774 543.596,589.974 546.296,594.674C557.596,613.774 567.596,631.774 567.596,632.874C567.596,633.474 564.496,631.074 560.796,627.574C556.996,624.074 551.296,619.174 547.996,616.674C542.796,612.674 541.796,611.274 538.996,604.274L535.796,596.474L534.596,600.174C533.896,602.174 533.596,605.574 533.796,607.774C533.996,609.874 533.896,611.674 533.496,611.674C531.996,611.674 530.096,601.674 530.196,594.674C530.296,587.374 532.896,575.674 534.396,575.674C534.796,575.674 536.596,578.074 538.296,580.874Z" style="fill-rule:nonzero;"/>
    <path id="path18" d="M538.096,275.874C538.496,277.174 538.996,282.974 539.296,288.874C540.296,310.874 533.096,330.074 517.996,345.674L512.596,351.274L523.296,354.074C529.296,355.574 540.896,358.874 549.096,361.274C568.496,366.974 577.796,368.874 582.396,368.074C601.296,364.674 614.396,348.674 614.696,328.774C614.696,325.174 614.496,320.774 614.096,319.174C612.496,313.074 607.696,304.974 602.396,300.074C597.896,295.774 594.996,294.174 583.596,289.674C566.696,283.174 540.196,273.674 538.596,273.674C537.796,273.674 537.596,274.374 538.096,275.874Z" style="fill-rule:nonzero;"/>
    <g transform="matrix(0.558577,0,0,0.917018,559.749,308.03)">
        <path d="M443.699,35.603C443.699,40.238 437.521,44 429.913,44L323.685,44C316.076,44 309.899,40.238 309.899,35.603C309.899,30.968 316.076,27.205 323.685,27.205L429.913,27.205C437.521,27.205 443.699,30.968 443.699,35.603Z"/>
    </g>
    <g transform="matrix(1.11555,0,0,0.917018,-219.564,343.589)">
        <path d="M443.699,35.603C443.699,40.238 440.606,44 436.796,44L316.802,44C312.992,44 309.899,40.238 309.899,35.603C309.899,30.968 312.992,27.205 316.802,27.205L436.796,27.205C440.606,27.205 443.699,30.968 443.699,35.603Z"/>
    </g>
    <g transform="matrix(1.16414,0,0,0.917018,291.775,343.241)">
        <path d="M443.699,35.603C443.699,40.238 440.735,44 437.084,44L316.514,44C312.863,44 309.899,40.238 309.899,35.603C309.899,30.968 312.863,27.205 316.514,27.205L437.084,27.205C440.735,27.205 443.699,30.968 443.699,35.603Z"/>
    </g>
    <g transform="matrix(1.41396,0,0,0.917018,-306.305,377.863)">
        <path d="M443.699,35.603C443.699,40.238 441.258,44 438.253,44L315.345,44C312.339,44 309.899,40.238 309.899,35.603C309.899,30.968 312.339,27.205 315.345,27.205L438.253,27.205C441.258,27.205 443.699,30.968 443.699,35.603Z"/>
    </g>
    <g transform="matrix(1.43708,0,0,0.917018,165.778,378.453)">
        <path d="M443.699,35.603C443.699,40.238 441.298,44 438.34,44L315.257,44C312.3,44 309.899,40.238 309.899,35.603C309.899,30.968 312.3,27.205 315.257,27.205L438.34,27.205C441.298,27.205 443.699,30.968 443.699,35.603Z"/>
    </g>
    <g transform="matrix(1.86618,0,0,0.917018,-33.8106,413.664)">
        <path d="M443.699,35.603C443.699,40.238 441.85,44 439.572,44L314.025,44C311.748,44 309.899,40.238 309.899,35.603C309.899,30.968 311.748,27.205 314.025,27.205L439.572,27.205C441.85,27.205 443.699,30.968 443.699,35.603Z"/>
    </g>
    <g transform="matrix(1.56098,0,0,0.917018,-328.151,446.411)">
        <path d="M443.699,35.603C443.699,40.238 441.488,44 438.766,44L314.832,44C312.109,44 309.899,40.238 309.899,35.603C309.899,30.968 312.109,27.205 314.832,27.205L438.766,27.205C441.488,27.205 443.699,30.968 443.699,35.603Z"/>
    </g>
    <g transform="matrix(1.83837,0,0,0.917018,-428.085,412.137)">
        <path d="M443.699,35.603C443.699,40.238 441.822,44 439.51,44L314.088,44C311.776,44 309.899,40.238 309.899,35.603C309.899,30.968 311.776,27.205 314.088,27.205L439.51,27.205C441.822,27.205 443.699,30.968 443.699,35.603Z"/>
    </g>
    <g transform="matrix(1.57347,0,0,0.917018,85.6134,448.876)">
        <path d="M443.699,35.603C443.699,40.238 441.506,44 438.805,44L314.793,44C312.092,44 309.899,40.238 309.899,35.603C309.899,30.968 312.092,27.205 314.793,27.205L438.805,27.205C441.506,27.205 443.699,30.968 443.699,35.603Z"/>
    </g>
    <g transform="matrix(1.248,0,0,0.917018,-216.03,480.685)">
        <path d="M443.699,35.603C443.699,40.238 440.934,44 437.528,44L316.069,44C312.664,44 309.899,40.238 309.899,35.603C309.899,30.968 312.664,27.205 316.069,27.205L437.528,27.205C440.934,27.205 443.699,30.968 443.699,35.603Z"/>
    </g>
    <g transform="matrix(0.831682,0,0,0.917018,-59.8781,514.958)">
        <path d="M443.699,35.603C443.699,40.238 439.55,44 434.44,44L319.158,44C314.048,44 309.899,40.238 309.899,35.603C309.899,30.968 314.048,27.205 319.158,27.205L434.44,27.205C439.55,27.205 443.699,30.968 443.699,35.603Z"/>
    </g>
    <g transform="matrix(0.423752,0,0,0.917018,101.83,549.232)">
        <path d="M443.699,35.603C443.699,40.238 435.556,44 425.526,44L328.071,44C318.042,44 309.899,40.238 309.899,35.603C309.899,30.968 318.042,27.205 328.071,27.205L425.526,27.205C435.556,27.205 443.699,30.968 443.699,35.603Z"/>
    </g>
    <g transform="matrix(1.24278,0,0,0.917018,216.136,484.087)">
        <path d="M443.699,35.603C443.699,40.238 440.922,44 437.502,44L316.095,44C312.675,44 309.899,40.238 309.899,35.603C309.899,30.968 312.675,27.205 316.095,27.205L437.502,27.205C440.922,27.205 443.699,30.968 443.699,35.603Z"/>
    </g>
    <g transform="matrix(0.810857,0,0,0.917018,381.171,519.299)">
        <path d="M443.699,35.603C443.699,40.238 439.443,44 434.202,44L319.396,44C314.154,44 309.899,40.238 309.899,35.603C309.899,30.968 314.154,27.205 319.396,27.205L434.202,27.205C439.443,27.205 443.699,30.968 443.699,35.603Z"/>
    </g>
    <g transform="matrix(0.374686,0,0,0.917018,535.387,554.51)">
        <path d="M443.699,35.603C443.699,40.238 434.49,44 423.147,44L330.451,44C319.108,44 309.899,40.238 309.899,35.603C309.899,30.968 319.108,27.205 330.451,27.205L423.147,27.205C434.49,27.205 443.699,30.968 443.699,35.603Z"/>
    </g>
    <g transform="matrix(0.376426,0,0,0.917018,6.70482,309.315)">
        <path d="M443.699,35.603C443.699,40.238 434.532,44 423.242,44L330.356,44C319.065,44 309.899,40.238 309.899,35.603C309.899,30.968 319.065,27.205 330.356,27.205L423.242,27.205C434.532,27.205 443.699,30.968 443.699,35.603Z"/>
    </g>
</svg>
